<svg xmlns="http://www.w3.org/2000/svg" xmlns:xlink="http://www.w3.org/1999/xlink" width="500" zoomAndPan="magnify" viewBox="0 0 375 374.999991" height="500" preserveAspectRatio="xMidYMid meet" version="1.0"><rect x="-37.5" width="450" y="-37.499999" height="449.999989" fill-opacity="0"/><path fill="#9d9d9d" d="M 219.644531 306.25 C 260.714844 332.144531 246.429688 344.644531 251.785156 376.785156 C 234.035156 376.785156 94.644531 375 87.5 375 C 99.105469 340.179688 121.429688 322.320312 136.605469 308.929688 C 128.570312 284.820312 230.355469 278.570312 219.644531 306.25 Z M 219.644531 306.25 " fill-opacity="1" fill-rule="nonzero"/><path stroke-linecap="butt" transform="matrix(1.785714, 0, 0, 1.785714, 0.0000045, 0)" fill="none" stroke-linejoin="miter" d="M 83.499069 163.99908 C 79.073756 166.10783 73.887193 169.94908 75.83188 173.499393 M 88.000944 179.000956 C 88.799382 180.199706 89.333132 181.166581 89.499382 181.499082 Z M 88.000944 179.000956 C 80.502193 177.530956 76.960631 175.564393 75.83188 173.499393 M 75.83188 173.499393 C 70.553442 177.666581 57.599066 190.699707 48.000315 209.499084 L 46.49969 211.999397 M 111.000322 161.000017 C 118.73751 163.226892 127.513761 167.555955 123.000948 172.160643 M 94.500007 181.499082 L 99.500633 180.000644 C 113.478759 177.524394 120.41751 174.796581 123.000948 172.160643 M 65.999067 211.999397 C 65.611879 204.231584 69.59313 189.859707 71.80688 183.085019 M 71.80688 183.085019 C 71.872505 182.881582 71.93813 182.689082 71.99938 182.500957 Z M 104.499071 211.999397 C 109.180321 203.358771 119.345635 191.412833 125.219073 184.999082 M 125.219073 184.999082 C 125.868761 184.288144 126.468136 183.645019 126.999698 183.085019 Z M 123.000948 172.160643 C 134.500637 176.999394 141.146262 182.658457 140.9997 203.999709 M 140.9997 203.999709 C 140.9822 206.491272 141.37595 209.155647 140.9997 211.999397 Z M 140.9997 203.999709 " stroke="#000000" stroke-width="2" stroke-opacity="1" stroke-miterlimit="4"/><path stroke-linecap="butt" transform="matrix(1.785714, 0, 0, 1.785714, 0.0000045, 0)" fill-opacity="1" fill="#ffffff" fill-rule="nonzero" stroke-linejoin="miter" d="M 85.159381 175.374081 L 85.246881 175.398143 L 85.334381 175.391581 C 85.572819 175.369706 85.706256 175.411268 85.780631 175.455018 C 85.850631 175.496581 85.920631 175.570956 85.975319 175.728456 C 86.100006 176.076268 86.097819 176.680018 85.933756 177.572519 C 85.612194 179.324706 84.741569 181.805332 83.746256 184.609707 C 83.713444 184.697207 83.682819 184.786894 83.650006 184.876582 C 82.687506 187.584707 81.633131 190.550957 80.911256 193.333458 C 80.169693 196.190333 79.756256 198.935646 80.204693 201.042209 C 80.259381 201.293771 80.217818 201.624084 80.062506 201.993771 C 79.909381 202.359084 79.657818 202.728771 79.345006 203.043771 C 78.693131 203.695646 77.916568 203.986584 77.299693 203.770021 C 76.588755 203.520646 75.93688 202.818459 75.589068 201.912834 C 75.256568 201.046584 75.23688 200.073146 75.64813 199.263771 C 75.853755 199.093146 76.037505 198.863458 76.203755 198.609708 C 76.402818 198.307833 76.599693 197.938146 76.794381 197.520333 C 77.183756 196.682521 77.586256 195.608458 77.993131 194.394395 C 78.610006 192.563458 79.255318 190.375957 79.909381 188.153457 C 80.121568 187.43377 80.333756 186.711895 80.548131 185.996582 C 81.425319 183.052207 82.313444 180.228144 83.179694 178.195956 C 83.615006 177.176581 84.032819 176.393456 84.420006 175.899081 C 84.837819 175.367518 85.071881 175.350018 85.159381 175.374081 Z M 85.159381 175.374081 " stroke="#000000" stroke-width="1" stroke-opacity="1" stroke-miterlimit="4"/><path stroke-linecap="butt" transform="matrix(1.785714, 0, 0, 1.785714, 0.0000045, 0)" fill-opacity="1" fill="#ffffff" fill-rule="nonzero" stroke-linejoin="miter" d="M 104.400633 176.122206 L 104.485946 176.144081 L 104.575633 176.137518 C 104.814071 176.117831 104.947508 176.157206 105.021883 176.200956 C 105.091883 176.244706 105.161883 176.319081 105.216571 176.474393 C 105.339071 176.822206 105.339071 177.428144 105.175008 178.318456 C 104.853446 180.072831 103.982821 182.553457 102.985321 185.355644 C 102.954696 185.443144 102.924071 185.532832 102.891258 185.622519 C 101.928758 188.332832 100.872196 191.299083 100.152508 194.079395 C 99.410945 196.936271 98.99532 199.683771 99.445945 201.790334 C 99.498445 202.041896 99.45907 202.370021 99.303758 202.739709 C 99.150633 203.105021 98.89907 203.474709 98.58407 203.789709 C 97.934383 204.441584 97.15782 204.734709 96.540945 204.515959 C 95.830008 204.266584 95.178132 203.566584 94.83032 202.660959 C 94.49782 201.792521 94.478132 200.819084 94.889382 200.009708 C 95.09282 199.841271 95.27657 199.611583 95.445007 199.357833 C 95.64407 199.055958 95.840945 198.684083 96.035633 198.266271 C 96.425008 197.428458 96.82532 196.354396 97.234383 195.14252 C 97.851258 193.309395 98.494383 191.124083 99.150633 188.899395 C 99.36282 188.181895 99.575008 187.46002 99.789383 186.74252 C 100.666571 183.800332 101.552508 180.974081 102.420946 178.944081 C 102.856258 177.924706 103.274071 177.139394 103.661258 176.645018 C 104.079071 176.115643 104.310946 176.098143 104.400633 176.122206 Z M 104.400633 176.122206 " stroke="#000000" stroke-width="1" stroke-opacity="1" stroke-miterlimit="4"/><path stroke-linecap="butt" transform="matrix(1.785714, 0, 0, 1.785714, 0.0000045, 0)" fill-opacity="1" fill="#272c43" fill-rule="nonzero" stroke-linejoin="miter" d="M 13.999999 82.499384 C 12.400936 106.900949 29.999376 128.334076 39.000939 135.999077 C 144.200013 187.199707 172.832203 122.333763 174.000328 83.499071 C 177.200641 91.100635 178.333766 97.000323 178.500016 98.999698 C 190.900955 65.399694 165.000952 40.665629 150.500013 32.499691 C 156.900639 20.10094 141.833137 11.000939 133.500949 7.999688 C 139.499075 14.800627 140.6672 22.16594 140.50095 25.00094 C 102.900008 -17.799689 57.165941 7.166251 39.000939 25.00094 C 34.199376 28.599378 27.6675 29.500628 25.000938 29.500628 C 19.799062 29.500628 12.834061 24.832503 9.999061 22.500627 C 6.800936 30.500316 13.332811 40.166879 16.999062 43.99938 C -7.800628 72.800008 3.333748 95.333447 12.000624 103.000636 C 11.600311 95.799385 13.166561 86.334072 13.999999 82.499384 Z M 13.999999 82.499384 " stroke="#000000" stroke-width="2" stroke-opacity="1" stroke-miterlimit="4"/><path fill="#ffd8b4" d="M 197.320312 289.285156 C 199.105469 306.25 192.855469 301.785156 166.070312 319.644531 C 155.714844 319.644531 161.605469 297.320312 160.714844 291.070312 C 160.714844 285.152344 169.109375 280.355469 179.464844 280.355469 C 189.820312 280.355469 197.320312 283.367188 197.320312 289.285156 Z M 197.320312 289.285156 " fill-opacity="1" fill-rule="nonzero"/><path stroke-linecap="butt" transform="matrix(1.785714, 0, 0, 1.785714, 0.0000045, 0)" fill="none" stroke-linejoin="miter" d="M 90.000319 163.99908 L 90.000319 168.500955 C 89.499382 171.167518 89.199694 177.100019 91.999695 179.499706 C 97.599695 176.299393 106.999384 170.83283 111.000322 168.500955 L 111.000322 159.499392 " stroke="#000000" stroke-width="2" stroke-opacity="1" stroke-miterlimit="4"/><path stroke-linecap="butt" transform="matrix(1.785714, 0, 0, 1.785714, 0.0000045, 0)" fill-opacity="1" fill="#ffd8b4" fill-rule="nonzero" stroke-linejoin="miter" d="M 153.000326 88.499697 L 144.00095 97.000323 L 148.999388 117.499387 L 147.9997 124.000638 L 145.499388 130.499701 C 147.332513 131.333139 153.599701 131.199701 163.999077 124.000638 C 183.999392 105.000011 167.000327 90.000322 163.999077 88.499697 C 161.599389 87.300947 155.666889 88.000947 153.000326 88.499697 Z M 153.000326 88.499697 " stroke="#000000" stroke-width="2" stroke-opacity="1" stroke-miterlimit="4"/><path fill="#edb1ad" d="M 299.742188 189.285156 C 299.742188 199.148438 284.5625 212.019531 265.8125 215.386719 C 257.433594 215.386719 287.242188 207.613281 265.8125 186.8125 C 265.8125 176.953125 276.183594 171.429688 284.5625 171.429688 C 292.949219 171.429688 299.742188 179.421875 299.742188 189.285156 Z M 299.742188 189.285156 " fill-opacity="1" fill-rule="nonzero"/><path stroke-linecap="butt" transform="matrix(1.785714, 0, 0, 1.785714, 0.0000045, 0)" fill="none" stroke-linejoin="miter" d="M 142.999075 121.500325 C 148.833138 119.83345 157.900327 114.299074 147.50095 105.500949 C 151.499701 96.499385 164.500015 93.500322 167.000327 103.000636 " stroke="#000000" stroke-width="2" stroke-opacity="1" stroke-miterlimit="4"/><path stroke-linecap="butt" transform="matrix(1.785714, 0, 0, 1.785714, 0.0000045, 0)" fill-opacity="1" fill="#ffd8b4" fill-rule="nonzero" stroke-linejoin="miter" d="M 29.500626 89.000634 C 32.300626 87.399384 36.334376 88.333447 37.999064 89.000634 C 40.000627 118.499075 43.999377 110.499387 42.000002 114.500324 C 40.400939 117.700637 38.666252 126.166263 37.999064 130.000951 C 37.165626 129.333764 34.300001 126.700013 29.500626 121.500325 C 19.499375 109.499699 26.000625 91.00001 29.500626 89.000634 Z M 29.500626 89.000634 " stroke="#000000" stroke-width="2" stroke-opacity="1" stroke-miterlimit="4"/><path fill="#edb1ad" d="M 51.785156 186.605469 C 51.785156 196.46875 68.75 241.070312 73.214844 206.25 C 70.535156 185.714844 70.535156 193.75 70.535156 186.605469 C 70.535156 176.746094 69.097656 169.644531 60.714844 169.644531 C 52.332031 169.644531 51.785156 176.746094 51.785156 186.605469 Z M 51.785156 186.605469 " fill-opacity="1" fill-rule="nonzero"/><path stroke-linecap="butt" transform="matrix(1.785714, 0, 0, 1.785714, 0.0000045, 0)" fill="none" stroke-linejoin="miter" d="M 28.999688 99.109073 C 29.833126 97.109698 31.900313 93.31001 33.499376 94.108447 C 35.100626 94.909072 37.165626 96.11001 37.999064 96.60876 L 39.000939 106.109074 C 38.167501 108.775636 36.999376 114.808762 39.000939 117.608762 " stroke="#000000" stroke-width="2" stroke-opacity="1" stroke-miterlimit="4"/><path stroke-linecap="butt" transform="matrix(1.785714, 0, 0, 1.785714, 0.0000045, 0)" fill-opacity="1" fill="#ffd8b4" fill-rule="nonzero" stroke-linejoin="miter" d="M 51.999065 154.000016 C 32.799376 140.000015 37.666564 121.832825 42.500939 114.500324 C 41.332814 113.833137 38.799689 106.900949 37.999064 84.500946 C 41.499064 28.000003 106.999384 36.999379 117.499385 45.500005 C 133.999699 52.500005 144.00095 97.000323 144.00095 97.000323 L 147.9997 112.500949 C 152.904076 131.499389 132.400636 147.999703 121.999073 154.000016 C 109.000946 161.500954 76.000318 171.500018 51.999065 154.000016 Z M 51.999065 154.000016 " stroke="#000000" stroke-width="2" stroke-opacity="1" stroke-miterlimit="4"/><path stroke-linecap="butt" transform="matrix(1.785714, 0, 0, 1.785714, 0.0000045, 0)" fill-opacity="1" fill="#832b2e" fill-rule="nonzero" stroke-linejoin="miter" d="M 92.386882 153.623766 L 92.29282 153.641266 L 92.20532 153.674079 C 90.800944 154.223141 89.120944 154.063454 87.287819 153.300016 C 85.459069 152.538766 83.577819 151.213141 81.873756 149.611891 C 80.171881 148.015015 78.684381 146.175328 77.627818 144.429703 C 76.658756 142.826265 76.114068 141.402202 76.01563 140.35439 C 76.899381 139.284702 77.702193 138.63064 79.097818 137.950327 C 80.675006 137.182514 82.967506 136.401577 86.929069 135.062827 C 88.425319 134.900952 89.781569 134.743452 91.010945 134.599077 C 93.94657 134.257827 96.15157 133.999702 97.825008 133.999702 C 99.010633 133.999702 99.778445 134.135327 100.28157 134.375952 C 100.714696 134.581577 101.001258 134.890014 101.189383 135.439077 C 101.965946 138.610952 102.445008 142.703765 101.392821 146.219078 C 100.870008 147.964703 99.97532 149.550641 98.562195 150.825953 C 97.14907 152.101266 95.16282 153.111891 92.386882 153.623766 Z M 92.386882 153.623766 " stroke="#000000" stroke-width="2" stroke-opacity="1" stroke-miterlimit="4"/><path stroke-linecap="butt" transform="matrix(1.785714, 0, 0, 1.785714, 0.0000045, 0)" fill-opacity="1" fill="#ff8a8e" fill-rule="nonzero" stroke-linejoin="miter" d="M 93.99907 134.128764 L 94.058132 134.128764 L 94.115007 134.122202 C 97.251883 133.761264 99.043445 134.244702 100.05407 134.988452 C 101.034071 135.710327 101.480321 136.828139 101.563446 138.250014 C 101.648758 139.687202 101.351258 141.301577 100.975008 142.800015 C 100.815321 143.436578 100.646883 144.033765 100.491571 144.58064 C 100.46532 144.672515 100.43907 144.76439 100.415008 144.854078 C 100.244383 145.451265 100.086883 146.02439 100.014695 146.464078 C 99.500633 149.541891 98.395945 151.265641 97.020008 152.254391 C 95.61782 153.262829 93.76282 153.628141 91.500945 153.628141 C 87.357819 153.628141 84.000006 150.270328 84.000006 146.12939 C 84.000006 145.155953 84.334694 143.90689 84.966881 142.537515 C 85.592506 141.179077 86.480632 139.772515 87.515319 138.49939 C 88.552194 137.224077 89.709382 136.112827 90.864382 135.327514 C 92.03032 134.531264 93.10657 134.128764 93.99907 134.128764 Z M 93.99907 134.128764 " stroke="#000000" stroke-width="2" stroke-opacity="1" stroke-miterlimit="4"/><path fill="#ffffff" d="M 230.355469 179.574219 C 230.355469 181.1875 230.304688 182.796875 230.203125 184.398438 C 230.097656 186.003906 229.945312 187.597656 229.738281 189.175781 C 229.535156 190.757812 229.277344 192.320312 228.972656 193.863281 C 228.667969 195.40625 228.3125 196.921875 227.910156 198.410156 C 227.507812 199.898438 227.058594 201.355469 226.5625 202.777344 C 226.066406 204.199219 225.523438 205.578125 224.941406 206.917969 C 224.355469 208.261719 223.730469 209.554688 223.0625 210.800781 C 222.394531 212.046875 221.6875 213.238281 220.941406 214.378906 C 220.199219 215.519531 219.417969 216.601562 218.605469 217.621094 C 217.792969 218.644531 216.945312 219.605469 216.070312 220.5 C 215.195312 221.394531 214.292969 222.222656 213.367188 222.984375 C 212.4375 223.742188 211.488281 224.429688 210.515625 225.046875 C 209.542969 225.664062 208.550781 226.207031 207.542969 226.675781 C 206.539062 227.144531 205.515625 227.535156 204.484375 227.847656 C 203.453125 228.164062 202.414062 228.398438 201.363281 228.558594 C 200.316406 228.714844 199.265625 228.792969 198.214844 228.792969 C 197.160156 228.792969 196.113281 228.714844 195.0625 228.558594 C 194.015625 228.398438 192.976562 228.164062 191.945312 227.847656 C 190.910156 227.535156 189.890625 227.144531 188.882812 226.675781 C 187.875 226.207031 186.886719 225.664062 185.914062 225.046875 C 184.941406 224.429688 183.992188 223.742188 183.0625 222.984375 C 182.132812 222.222656 181.230469 221.394531 180.355469 220.5 C 179.480469 219.605469 178.636719 218.644531 177.824219 217.621094 C 177.007812 216.601562 176.230469 215.519531 175.484375 214.378906 C 174.742188 213.238281 174.035156 212.046875 173.367188 210.800781 C 172.699219 209.554688 172.074219 208.261719 171.488281 206.917969 C 170.902344 205.578125 170.363281 204.199219 169.867188 202.777344 C 169.371094 201.355469 168.921875 199.898438 168.519531 198.410156 C 168.117188 196.921875 167.761719 195.40625 167.457031 193.863281 C 167.148438 192.320312 166.894531 190.757812 166.6875 189.175781 C 166.484375 187.597656 166.328125 186.003906 166.226562 184.398438 C 166.121094 182.796875 166.070312 181.1875 166.070312 179.574219 C 166.070312 177.964844 166.121094 176.355469 166.226562 174.75 C 166.328125 173.144531 166.484375 171.554688 166.6875 169.972656 C 166.894531 168.390625 167.148438 166.828125 167.457031 165.289062 C 167.761719 163.746094 168.117188 162.230469 168.519531 160.738281 C 168.921875 159.25 169.371094 157.792969 169.867188 156.371094 C 170.363281 154.953125 170.902344 153.570312 171.488281 152.230469 C 172.074219 150.890625 172.699219 149.597656 173.367188 148.351562 C 174.035156 147.105469 174.742188 145.910156 175.484375 144.769531 C 176.230469 143.632812 177.007812 142.550781 177.824219 141.527344 C 178.636719 140.503906 179.480469 139.546875 180.355469 138.648438 C 181.230469 137.753906 182.132812 136.925781 183.0625 136.167969 C 183.992188 135.40625 184.941406 134.71875 185.914062 134.101562 C 186.886719 133.484375 187.875 132.941406 188.882812 132.476562 C 189.890625 132.007812 190.910156 131.617188 191.945312 131.300781 C 192.976562 130.988281 194.015625 130.75 195.0625 130.59375 C 196.113281 130.433594 197.160156 130.355469 198.214844 130.355469 C 199.265625 130.355469 200.316406 130.433594 201.363281 130.59375 C 202.414062 130.75 203.453125 130.988281 204.484375 131.300781 C 205.515625 131.617188 206.539062 132.007812 207.542969 132.476562 C 208.550781 132.941406 209.542969 133.484375 210.515625 134.101562 C 211.488281 134.71875 212.4375 135.40625 213.367188 136.167969 C 214.292969 136.925781 215.195312 137.753906 216.070312 138.648438 C 216.945312 139.546875 217.792969 140.503906 218.605469 141.527344 C 219.417969 142.550781 220.199219 143.632812 220.941406 144.769531 C 221.6875 145.910156 222.394531 147.105469 223.0625 148.351562 C 223.730469 149.597656 224.355469 150.890625 224.941406 152.230469 C 225.523438 153.570312 226.066406 154.953125 226.5625 156.371094 C 227.058594 157.792969 227.507812 159.25 227.910156 160.738281 C 228.3125 162.230469 228.667969 163.746094 228.972656 165.289062 C 229.277344 166.828125 229.535156 168.390625 229.738281 169.972656 C 229.945312 171.554688 230.097656 173.144531 230.203125 174.75 C 230.304688 176.355469 230.355469 177.964844 230.355469 179.574219 Z M 230.355469 179.574219 " fill-opacity="1" fill-rule="nonzero"/><path stroke-linecap="butt" transform="matrix(1.785714, 0, 0, 1.785714, 0.0000045, 0)" fill-opacity="1" fill="#884a00" fill-rule="nonzero" stroke-linejoin="miter" d="M 127.999386 104.499073 C 127.999386 110.258762 126.647511 115.42345 124.510323 119.113762 C 122.36001 122.830325 119.535947 124.875638 116.624385 124.875638 C 113.715009 124.875638 110.890947 122.830325 108.740634 119.113762 C 106.603446 115.42345 105.249384 110.258762 105.249384 104.499073 C 105.249384 98.741573 106.603446 93.576885 108.740634 89.886572 C 110.890947 86.170009 113.715009 84.124696 116.624385 84.124696 C 119.535947 84.124696 122.36001 86.170009 124.510323 89.886572 C 126.647511 93.576885 127.999386 98.741573 127.999386 104.499073 Z M 127.999386 104.499073 " stroke="#000000" stroke-width="2" stroke-opacity="1" stroke-miterlimit="4"/><path fill="#000000" d="M 209.265625 148.4375 C 215.367188 148.4375 227.34375 167.371094 227.34375 179.574219 C 227.34375 191.78125 215.367188 196.652344 209.265625 196.652344 C 203.160156 196.652344 188.167969 191.78125 188.167969 179.578125 C 188.167969 167.371094 203.160156 148.4375 209.265625 148.4375 Z M 209.265625 148.4375 " fill-opacity="1" fill-rule="nonzero"/><path fill="#ffffff" d="M 199.21875 148.4375 C 199.945312 148.4375 200.660156 148.488281 201.375 148.59375 C 202.085938 148.695312 202.777344 148.847656 203.445312 149.050781 C 204.117188 149.25 204.753906 149.5 205.355469 149.792969 C 205.960938 150.085938 206.519531 150.417969 207.03125 150.792969 C 207.542969 151.164062 208.003906 151.570312 208.40625 152.007812 C 208.808594 152.449219 209.148438 152.910156 209.425781 153.398438 C 209.703125 153.886719 209.914062 154.386719 210.054688 154.90625 C 210.195312 155.421875 210.269531 155.945312 210.269531 156.472656 C 210.269531 157 210.195312 157.523438 210.054688 158.039062 C 209.914062 158.558594 209.703125 159.0625 209.425781 159.546875 C 209.148438 160.035156 208.808594 160.5 208.40625 160.9375 C 208.003906 161.375 207.542969 161.78125 207.03125 162.15625 C 206.519531 162.527344 205.960938 162.863281 205.355469 163.15625 C 204.753906 163.449219 204.117188 163.695312 203.445312 163.898438 C 202.777344 164.097656 202.085938 164.25 201.375 164.355469 C 200.660156 164.457031 199.945312 164.507812 199.21875 164.507812 C 198.492188 164.507812 197.773438 164.457031 197.0625 164.355469 C 196.351562 164.25 195.660156 164.097656 194.988281 163.898438 C 194.320312 163.695312 193.683594 163.449219 193.078125 163.15625 C 192.476562 162.863281 191.917969 162.527344 191.40625 162.15625 C 190.890625 161.78125 190.433594 161.375 190.03125 160.9375 C 189.628906 160.5 189.285156 160.035156 189.007812 159.546875 C 188.730469 159.0625 188.523438 158.558594 188.378906 158.039062 C 188.238281 157.523438 188.167969 157 188.167969 156.472656 C 188.167969 155.945312 188.238281 155.421875 188.378906 154.90625 C 188.523438 154.386719 188.730469 153.886719 189.007812 153.398438 C 189.285156 152.910156 189.628906 152.449219 190.03125 152.007812 C 190.433594 151.570312 190.890625 151.164062 191.402344 150.792969 C 191.917969 150.417969 192.476562 150.085938 193.078125 149.792969 C 193.683594 149.5 194.320312 149.25 194.988281 149.050781 C 195.660156 148.847656 196.351562 148.695312 197.0625 148.59375 C 197.773438 148.488281 198.492188 148.4375 199.21875 148.4375 Z M 199.21875 148.4375 " fill-opacity="1" fill-rule="nonzero"/><path stroke-linecap="butt" transform="matrix(1.785714, 0, 0, 1.785714, 0.0000045, 0)" fill="none" stroke-linejoin="miter" d="M 127.874698 88.186884 C 122.250635 76.936571 107.738759 61.186569 94.688132 88.186884 " stroke="#000000" stroke-width="2" stroke-opacity="1" stroke-miterlimit="4"/><path fill="#ffffff" d="M 141.070312 184.820312 C 141.070312 186.253906 141.027344 187.683594 140.933594 189.109375 C 140.84375 190.535156 140.703125 191.953125 140.523438 193.355469 C 140.339844 194.761719 140.113281 196.148438 139.839844 197.519531 C 139.570312 198.890625 139.253906 200.238281 138.898438 201.5625 C 138.539062 202.886719 138.140625 204.179688 137.699219 205.445312 C 137.257812 206.707031 136.777344 207.9375 136.257812 209.128906 C 135.738281 210.320312 135.179688 211.46875 134.585938 212.574219 C 133.992188 213.683594 133.363281 214.742188 132.703125 215.757812 C 132.042969 216.769531 131.347656 217.730469 130.625 218.640625 C 129.902344 219.550781 129.152344 220.402344 128.375 221.199219 C 127.59375 221.996094 126.792969 222.730469 125.96875 223.40625 C 125.144531 224.082031 124.296875 224.691406 123.433594 225.242188 C 122.570312 225.789062 121.6875 226.273438 120.792969 226.6875 C 119.898438 227.101562 118.992188 227.453125 118.074219 227.730469 C 117.15625 228.011719 116.230469 228.21875 115.300781 228.359375 C 114.371094 228.5 113.4375 228.570312 112.5 228.570312 C 111.5625 228.570312 110.628906 228.5 109.699219 228.359375 C 108.769531 228.21875 107.84375 228.011719 106.925781 227.730469 C 106.007812 227.453125 105.101562 227.101562 104.207031 226.6875 C 103.3125 226.273438 102.429688 225.789062 101.566406 225.242188 C 100.703125 224.691406 99.855469 224.082031 99.03125 223.40625 C 98.207031 222.730469 97.40625 221.996094 96.625 221.199219 C 95.847656 220.402344 95.097656 219.550781 94.375 218.640625 C 93.652344 217.730469 92.957031 216.769531 92.296875 215.757812 C 91.636719 214.742188 91.007812 213.683594 90.414062 212.574219 C 89.820312 211.46875 89.261719 210.320312 88.742188 209.128906 C 88.222656 207.9375 87.742188 206.707031 87.300781 205.445312 C 86.859375 204.179688 86.460938 202.886719 86.101562 201.5625 C 85.746094 200.238281 85.429688 198.890625 85.160156 197.519531 C 84.886719 196.148438 84.660156 194.761719 84.476562 193.355469 C 84.296875 191.953125 84.15625 190.535156 84.066406 189.109375 C 83.972656 187.683594 83.929688 186.253906 83.929688 184.820312 C 83.929688 183.386719 83.972656 181.960938 84.066406 180.53125 C 84.15625 179.105469 84.296875 177.691406 84.476562 176.285156 C 84.660156 174.882812 84.886719 173.492188 85.160156 172.121094 C 85.429688 170.75 85.746094 169.402344 86.101562 168.078125 C 86.460938 166.753906 86.859375 165.460938 87.300781 164.199219 C 87.742188 162.933594 88.222656 161.707031 88.742188 160.515625 C 89.261719 159.324219 89.820312 158.175781 90.414062 157.066406 C 91.007812 155.960938 91.636719 154.898438 92.296875 153.886719 C 92.957031 152.871094 93.652344 151.910156 94.375 151.003906 C 95.097656 150.09375 95.847656 149.242188 96.625 148.445312 C 97.40625 147.648438 98.207031 146.914062 99.03125 146.238281 C 99.855469 145.5625 100.703125 144.949219 101.566406 144.402344 C 102.429688 143.851562 103.3125 143.371094 104.207031 142.957031 C 105.101562 142.539062 106.007812 142.191406 106.925781 141.910156 C 107.84375 141.632812 108.769531 141.421875 109.699219 141.28125 C 110.628906 141.140625 111.5625 141.070312 112.5 141.070312 C 113.4375 141.070312 114.371094 141.140625 115.300781 141.28125 C 116.230469 141.421875 117.15625 141.632812 118.074219 141.910156 C 118.992188 142.191406 119.898438 142.539062 120.792969 142.957031 C 121.6875 143.371094 122.570312 143.851562 123.433594 144.402344 C 124.296875 144.949219 125.144531 145.5625 125.96875 146.238281 C 126.792969 146.914062 127.59375 147.648438 128.375 148.445312 C 129.152344 149.242188 129.902344 150.09375 130.625 151.003906 C 131.347656 151.910156 132.042969 152.871094 132.703125 153.886719 C 133.363281 154.898438 133.992188 155.960938 134.585938 157.066406 C 135.179688 158.175781 135.738281 159.324219 136.257812 160.515625 C 136.777344 161.707031 137.257812 162.933594 137.699219 164.199219 C 138.140625 165.460938 138.539062 166.753906 138.898438 168.078125 C 139.253906 169.402344 139.570312 170.75 139.839844 172.121094 C 140.113281 173.492188 140.339844 174.882812 140.523438 176.285156 C 140.703125 177.691406 140.84375 179.105469 140.933594 180.53125 C 141.027344 181.960938 141.070312 183.386719 141.070312 184.820312 Z M 141.070312 184.820312 " fill-opacity="1" fill-rule="nonzero"/><path stroke-linecap="butt" transform="matrix(1.785714, 0, 0, 1.785714, 0.0000045, 0)" fill-opacity="1" fill="#884a00" fill-rule="nonzero" stroke-linejoin="miter" d="M 77.999693 106.999386 C 77.999693 112.102824 76.800943 116.672512 74.91313 119.934075 C 73.010005 123.2197 70.52938 125.000326 68.00063 125.000326 C 65.469692 125.000326 62.989067 123.2197 61.088129 119.934075 C 59.200316 116.672512 57.999379 112.102824 57.999379 106.999386 C 57.999379 101.895948 59.200316 97.32626 61.088129 94.066885 C 62.989067 90.779072 65.469692 89.000634 68.00063 89.000634 C 70.52938 89.000634 73.010005 90.779072 74.91313 94.066885 C 76.800943 97.32626 77.999693 101.895948 77.999693 106.999386 Z M 77.999693 106.999386 " stroke="#000000" stroke-width="2" stroke-opacity="1" stroke-miterlimit="4"/><path fill="#000000" d="M 122.320312 157.144531 C 127.746094 157.144531 138.394531 173.972656 138.394531 184.820312 C 138.394531 195.667969 127.746094 200 122.320312 200 C 116.898438 200 103.570312 195.667969 103.570312 184.820312 C 103.570312 173.972656 116.898438 157.144531 122.320312 157.144531 Z M 122.320312 157.144531 " fill-opacity="1" fill-rule="nonzero"/><path fill="#ffffff" d="M 113.394531 157.144531 C 114.039062 157.144531 114.675781 157.1875 115.308594 157.28125 C 115.941406 157.371094 116.554688 157.507812 117.152344 157.6875 C 117.746094 157.867188 118.3125 158.085938 118.847656 158.347656 C 119.386719 158.605469 119.882812 158.902344 120.335938 159.234375 C 120.792969 159.566406 121.199219 159.925781 121.558594 160.316406 C 121.917969 160.707031 122.21875 161.117188 122.464844 161.550781 C 122.714844 161.984375 122.898438 162.433594 123.027344 162.890625 C 123.152344 163.351562 123.214844 163.816406 123.214844 164.285156 C 123.214844 164.753906 123.152344 165.21875 123.027344 165.679688 C 122.898438 166.140625 122.714844 166.585938 122.464844 167.019531 C 122.21875 167.453125 121.917969 167.863281 121.558594 168.253906 C 121.199219 168.644531 120.792969 169.003906 120.335938 169.335938 C 119.882812 169.667969 119.386719 169.964844 118.847656 170.226562 C 118.3125 170.484375 117.746094 170.707031 117.152344 170.886719 C 116.554688 171.0625 115.941406 171.199219 115.308594 171.292969 C 114.675781 171.382812 114.039062 171.429688 113.394531 171.429688 C 112.746094 171.429688 112.109375 171.382812 111.476562 171.292969 C 110.84375 171.199219 110.230469 171.0625 109.632812 170.886719 C 109.039062 170.707031 108.472656 170.484375 107.9375 170.226562 C 107.398438 169.964844 106.902344 169.667969 106.449219 169.335938 C 105.992188 169.003906 105.585938 168.644531 105.226562 168.253906 C 104.867188 167.863281 104.566406 167.453125 104.320312 167.019531 C 104.070312 166.585938 103.886719 166.140625 103.761719 165.679688 C 103.632812 165.21875 103.570312 164.753906 103.570312 164.285156 C 103.570312 163.816406 103.632812 163.351562 103.761719 162.890625 C 103.886719 162.433594 104.070312 161.984375 104.320312 161.550781 C 104.566406 161.117188 104.867188 160.707031 105.226562 160.316406 C 105.585938 159.925781 105.992188 159.566406 106.449219 159.234375 C 106.902344 158.902344 107.398438 158.605469 107.9375 158.347656 C 108.472656 158.085938 109.039062 157.867188 109.632812 157.6875 C 110.230469 157.507812 110.84375 157.371094 111.476562 157.28125 C 112.109375 157.1875 112.746094 157.144531 113.394531 157.144531 Z M 113.394531 157.144531 " fill-opacity="1" fill-rule="nonzero"/><path stroke-linecap="butt" transform="matrix(1.785714, 0, 0, 1.785714, 0.0000045, 0)" fill="none" stroke-linejoin="miter" d="M 77.999693 92.500635 C 72.999068 82.499384 60.099379 68.499382 48.499065 92.500635 " stroke="#000000" stroke-width="2" stroke-opacity="1" stroke-miterlimit="4"/><path stroke-linecap="butt" transform="matrix(1.785714, 0, 0, 1.785714, 0.0000045, 0)" fill="none" stroke-linejoin="miter" d="M 29.500626 98.500948 L 32.298438 99.89876 M 76.000318 99.999385 C 76.000318 98.800635 75.33313 95.499697 75.00063 93.999072 L 32.499688 92.999385 L 32.499688 99.999385 L 32.298438 99.89876 M 76.000318 99.999385 C 76.000318 101.500011 77.500943 97.000323 83.000319 99.999385 M 76.000318 99.999385 L 75.00063 120.500638 C 76.000318 128.999076 35.500939 138.400952 33.499376 113.999387 C 32.700938 105.599386 32.366251 101.099698 32.298438 99.89876 M 83.000319 99.999385 C 83.000319 96.400948 83.000319 93.165635 83.000319 91.999697 L 132.499074 88.499697 L 133.000011 94.50001 M 83.000319 99.999385 C 83.000319 101.500011 83.400631 108.900324 84.999694 116.4997 C 92.999382 139.000327 133.000011 121.500325 133.999699 116.4997 C 134.999387 111.499074 133.667199 99.999385 133.000011 94.50001 M 133.000011 94.50001 L 136.500012 92.999385 " stroke="#000000" stroke-width="2" stroke-opacity="1" stroke-miterlimit="4"/><path fill="#272c43" d="M 145.535156 138.394531 C 117.855469 150 110.714844 148.214844 100 143.75 C 89.285156 146.429688 58.039062 158.929688 53.574219 140.179688 C 42.855469 113.394531 178.226562 12.886719 202.679688 16.964844 C 231.25 132.140625 150.890625 136.148438 145.535156 138.394531 Z M 145.535156 138.394531 " fill-opacity="1" fill-rule="nonzero"/><path stroke-linecap="butt" transform="matrix(1.785714, 0, 0, 1.785714, 0.0000045, 0)" fill="none" stroke-linejoin="miter" d="M 37.001564 84.000009 C 40.678752 84.945009 47.589065 84.936259 54.501566 80.891571 M 54.501566 80.891571 C 58.550629 78.520321 62.601879 74.764383 66.001254 69.00032 C 64.001879 72.15032 58.900629 78.938133 54.501566 80.891571 Z M 54.501566 80.891571 C 59.626879 83.111884 69.035317 84.124696 78.001881 78.041258 M 78.001881 78.041258 C 83.317506 74.431883 88.480007 68.328757 92.500632 58.500319 C 90.667507 63.695632 85.200944 74.88032 78.001881 78.041258 Z M 78.001881 78.041258 C 87.333757 78.859383 108.200321 73.399383 117.000635 44.999067 " stroke="#000000" stroke-width="2" stroke-opacity="1" stroke-miterlimit="4"/><path fill="#000000" d="M 139.285156 233.277344 C 139.285156 234.625 138.085938 235.714844 136.609375 235.714844 C 135.128906 235.714844 133.933594 234.625 133.933594 233.277344 C 133.933594 231.933594 133.792969 226.785156 135.269531 226.785156 C 136.75 226.785156 139.285156 231.933594 139.285156 233.277344 Z M 139.285156 233.277344 " fill-opacity="1" fill-rule="nonzero"/></svg>