<?xml version="1.0" standalone="no"?>
<!DOCTYPE svg PUBLIC "-//W3C//DTD SVG 20010904//EN"
 "http://www.w3.org/TR/2001/REC-SVG-20010904/DTD/svg10.dtd">
<svg version="1.0" xmlns="http://www.w3.org/2000/svg"
 width="700.000000pt" height="700.000000pt" viewBox="0 0 700.000000 700.000000"
 preserveAspectRatio="xMidYMid meet">
<metadata>
Created by potrace 1.14, written by Peter Selinger 2001-2017
</metadata>
<g transform="translate(0.000000,700.000000) scale(0.100000,-0.100000)"
fill="#000000" stroke="none">
<path d="M2958 6985 c-2 -2 -35 -6 -74 -9 -39 -4 -80 -8 -90 -10 -11 -2 -39
-7 -64 -11 -47 -8 -66 -11 -100 -20 -11 -3 -29 -7 -39 -9 -414 -92 -918 -367
-1266 -690 -141 -131 -400 -211 -567 -176 -98 21 -304 129 -378 198 -49 46
-59 47 -76 7 -73 -176 -12 -430 158 -656 l59 -78 -51 -63 c-133 -164 -267
-390 -339 -571 -27 -68 -66 -203 -87 -302 -11 -51 -14 -348 -5 -390 5 -22 12
-53 15 -70 41 -230 166 -452 341 -608 l41 -36 -1 142 c-1 143 4 252 11 244 2
-2 13 -46 24 -98 39 -181 81 -298 196 -544 49 -103 184 -313 292 -451 38 -50
127 -150 196 -222 69 -72 126 -138 126 -147 0 -34 66 -172 122 -256 193 -289
567 -524 963 -605 104 -21 224 -37 284 -38 23 0 22 -2 -15 -30 -106 -84 -147
-140 -149 -208 -2 -47 -3 -48 -141 -185 -200 -198 -370 -405 -530 -648 -76
-114 -204 -327 -204 -339 0 -3 -13 -28 -30 -55 l-29 -51 1594 0 1594 0 -5 182
c-7 284 -16 370 -50 508 -24 95 -94 254 -134 300 -90 107 -213 200 -335 256
l-56 26 7 36 c11 53 8 68 -20 117 -43 72 -169 149 -341 209 -38 13 -71 28 -72
33 -2 4 18 17 45 27 105 42 301 136 327 156 8 7 108 36 185 54 50 12 231 86
323 132 299 149 578 399 764 684 23 36 78 98 122 137 148 135 254 301 297 463
27 102 26 240 -1 337 -17 58 -17 67 -2 160 9 54 19 127 23 163 3 36 8 67 9 68
7 7 55 -158 72 -245 9 -48 21 -93 25 -99 4 -6 20 -11 35 -10 32 1 37 14 79
176 69 266 71 562 4 815 -122 459 -457 902 -906 1199 l-71 47 15 42 c8 23 16
82 18 130 3 74 0 98 -21 153 -66 175 -233 331 -487 453 -58 28 -112 51 -120
51 -8 0 -20 -11 -28 -24 -12 -23 -9 -30 35 -88 26 -35 64 -97 85 -138 39 -77
85 -211 78 -230 -1 -5 -43 30 -93 79 -49 48 -130 120 -180 160 -49 39 -95 76
-102 81 -76 62 -272 172 -408 230 -132 56 -129 55 -210 78 -60 18 -89 25 -150
38 -28 6 -135 24 -170 30 -39 5 -362 13 -367 9z"/>
</g>
</svg>
